<mxfile host="app.diagrams.net" modified="2020-11-23T11:55:54.244Z" agent="5.0 (Macintosh; Intel Mac OS X 11_0_0) AppleWebKit/537.36 (KHTML, like Gecko) Chrome/86.0.4240.198 Safari/537.36" etag="BL7ysuNZMubxelovcQ-L" version="13.9.7" type="github">
  <diagram id="9g4c_B2Gvvu2pz5fpMDK" name="Page-1">
    <mxGraphModel dx="2125" dy="841" grid="1" gridSize="10" guides="1" tooltips="1" connect="1" arrows="1" fold="1" page="1" pageScale="1" pageWidth="827" pageHeight="1169" math="0" shadow="0">
      <root>
        <mxCell id="0" />
        <mxCell id="J_sTBLCLrLmJg9gdRxps-111" value="Untitled Layer" parent="0" />
        <mxCell id="J_sTBLCLrLmJg9gdRxps-112" value="" style="rounded=0;whiteSpace=wrap;html=1;strokeColor=#000000;fillColor=none;" parent="J_sTBLCLrLmJg9gdRxps-111" vertex="1">
          <mxGeometry x="-820" y="680" width="720" height="750" as="geometry" />
        </mxCell>
        <mxCell id="J_sTBLCLrLmJg9gdRxps-113" value="" style="rounded=0;whiteSpace=wrap;html=1;strokeColor=#000000;fillColor=none;" parent="J_sTBLCLrLmJg9gdRxps-111" vertex="1">
          <mxGeometry x="-820" y="180" width="720" height="430" as="geometry" />
        </mxCell>
        <mxCell id="J_sTBLCLrLmJg9gdRxps-19" value="Untitled Layer" style="" parent="0" />
        <mxCell id="J_sTBLCLrLmJg9gdRxps-87" value="" style="whiteSpace=wrap;html=1;fillColor=#fbf2ea;" parent="J_sTBLCLrLmJg9gdRxps-19" vertex="1">
          <mxGeometry x="-810" y="800" width="690" height="620" as="geometry" />
        </mxCell>
        <mxCell id="J_sTBLCLrLmJg9gdRxps-21" value="U10 Order playground" style="text;html=1;strokeColor=none;fillColor=none;align=left;verticalAlign=middle;whiteSpace=wrap;rounded=0;" parent="J_sTBLCLrLmJg9gdRxps-19" vertex="1">
          <mxGeometry x="-810" y="120" width="190" height="20" as="geometry" />
        </mxCell>
        <mxCell id="J_sTBLCLrLmJg9gdRxps-22" value="Actors&lt;br&gt;Requester: Person who fill-out and submit the Ordering form&lt;br&gt;Approver: Can be costcenter or service owner&lt;br&gt;" style="text;html=1;align=left;verticalAlign=middle;resizable=0;points=[];autosize=1;" parent="J_sTBLCLrLmJg9gdRxps-19" vertex="1">
          <mxGeometry x="-810" y="30" width="340" height="50" as="geometry" />
        </mxCell>
        <mxCell id="J_sTBLCLrLmJg9gdRxps-27" value="" style="edgeStyle=orthogonalEdgeStyle;rounded=0;orthogonalLoop=1;jettySize=auto;html=1;" parent="J_sTBLCLrLmJg9gdRxps-19" source="J_sTBLCLrLmJg9gdRxps-25" target="J_sTBLCLrLmJg9gdRxps-26" edge="1">
          <mxGeometry relative="1" as="geometry" />
        </mxCell>
        <mxCell id="J_sTBLCLrLmJg9gdRxps-34" value="" style="edgeStyle=orthogonalEdgeStyle;rounded=0;orthogonalLoop=1;jettySize=auto;html=1;" parent="J_sTBLCLrLmJg9gdRxps-19" source="J_sTBLCLrLmJg9gdRxps-25" target="J_sTBLCLrLmJg9gdRxps-33" edge="1">
          <mxGeometry relative="1" as="geometry" />
        </mxCell>
        <mxCell id="J_sTBLCLrLmJg9gdRxps-58" value="Playground" style="edgeLabel;html=1;align=center;verticalAlign=middle;resizable=0;points=[];" parent="J_sTBLCLrLmJg9gdRxps-34" vertex="1" connectable="0">
          <mxGeometry x="-0.151" y="-1" relative="1" as="geometry">
            <mxPoint as="offset" />
          </mxGeometry>
        </mxCell>
        <mxCell id="J_sTBLCLrLmJg9gdRxps-25" value="" style="rhombus;whiteSpace=wrap;html=1;fillColor=#fbf2ea;" parent="J_sTBLCLrLmJg9gdRxps-19" vertex="1">
          <mxGeometry x="-700" y="190" width="80" height="80" as="geometry" />
        </mxCell>
        <mxCell id="J_sTBLCLrLmJg9gdRxps-26" value="U20" style="whiteSpace=wrap;html=1;fillColor=#fbedf4;" parent="J_sTBLCLrLmJg9gdRxps-19" vertex="1">
          <mxGeometry x="-810" y="200" width="70" height="60" as="geometry" />
        </mxCell>
        <mxCell id="J_sTBLCLrLmJg9gdRxps-29" value="Selection: consumer ready or playground" style="text;html=1;align=center;verticalAlign=middle;resizable=0;points=[];autosize=1;fillColor=#e9f7fb;" parent="J_sTBLCLrLmJg9gdRxps-19" vertex="1">
          <mxGeometry x="-653" y="200" width="230" height="20" as="geometry" />
        </mxCell>
        <mxCell id="J_sTBLCLrLmJg9gdRxps-33" value="" style="whiteSpace=wrap;html=1;fillColor=#fbf2ea;" parent="J_sTBLCLrLmJg9gdRxps-19" vertex="1">
          <mxGeometry x="-810" y="320" width="690" height="280" as="geometry" />
        </mxCell>
        <mxCell id="J_sTBLCLrLmJg9gdRxps-63" value="U20 Order consumer ready" style="text;html=1;strokeColor=none;fillColor=none;align=left;verticalAlign=middle;whiteSpace=wrap;rounded=0;" parent="J_sTBLCLrLmJg9gdRxps-19" vertex="1">
          <mxGeometry x="-810" y="620" width="190" height="20" as="geometry" />
        </mxCell>
        <mxCell id="J_sTBLCLrLmJg9gdRxps-64" value="" style="edgeStyle=orthogonalEdgeStyle;rounded=0;orthogonalLoop=1;jettySize=auto;html=1;" parent="J_sTBLCLrLmJg9gdRxps-19" source="J_sTBLCLrLmJg9gdRxps-67" target="J_sTBLCLrLmJg9gdRxps-68" edge="1">
          <mxGeometry relative="1" as="geometry" />
        </mxCell>
        <mxCell id="J_sTBLCLrLmJg9gdRxps-65" value="" style="edgeStyle=orthogonalEdgeStyle;rounded=0;orthogonalLoop=1;jettySize=auto;html=1;" parent="J_sTBLCLrLmJg9gdRxps-19" source="J_sTBLCLrLmJg9gdRxps-67" edge="1">
          <mxGeometry relative="1" as="geometry">
            <mxPoint x="-465" y="800" as="targetPoint" />
          </mxGeometry>
        </mxCell>
        <mxCell id="J_sTBLCLrLmJg9gdRxps-66" value="Consumer ready" style="edgeLabel;html=1;align=center;verticalAlign=middle;resizable=0;points=[];" parent="J_sTBLCLrLmJg9gdRxps-65" vertex="1" connectable="0">
          <mxGeometry x="-0.151" y="-1" relative="1" as="geometry">
            <mxPoint as="offset" />
          </mxGeometry>
        </mxCell>
        <mxCell id="J_sTBLCLrLmJg9gdRxps-67" value="" style="rhombus;whiteSpace=wrap;html=1;fillColor=#fbf2ea;" parent="J_sTBLCLrLmJg9gdRxps-19" vertex="1">
          <mxGeometry x="-700" y="690" width="80" height="80" as="geometry" />
        </mxCell>
        <mxCell id="J_sTBLCLrLmJg9gdRxps-68" value="U10" style="whiteSpace=wrap;html=1;fillColor=#fbedf4;" parent="J_sTBLCLrLmJg9gdRxps-19" vertex="1">
          <mxGeometry x="-810" y="700" width="70" height="60" as="geometry" />
        </mxCell>
        <mxCell id="J_sTBLCLrLmJg9gdRxps-69" value="Selection: consumer ready or playground" style="text;html=1;align=center;verticalAlign=middle;resizable=0;points=[];autosize=1;fillColor=#e9f7fb;" parent="J_sTBLCLrLmJg9gdRxps-19" vertex="1">
          <mxGeometry x="-653" y="700" width="230" height="20" as="geometry" />
        </mxCell>
        <mxCell id="J_sTBLCLrLmJg9gdRxps-71" value="Autocomplete: search service id" style="text;html=1;align=center;verticalAlign=middle;resizable=0;points=[];autosize=1;fillColor=#e9f7fb;" parent="J_sTBLCLrLmJg9gdRxps-19" vertex="1">
          <mxGeometry x="-800" y="1010" width="190" height="20" as="geometry" />
        </mxCell>
        <mxCell id="J_sTBLCLrLmJg9gdRxps-72" value="&lt;b&gt;Consumer ready fields&lt;/b&gt;" style="text;html=1;align=center;verticalAlign=middle;resizable=0;points=[];autosize=1;" parent="J_sTBLCLrLmJg9gdRxps-19" vertex="1">
          <mxGeometry x="-800" y="830" width="140" height="20" as="geometry" />
        </mxCell>
        <mxCell id="J_sTBLCLrLmJg9gdRxps-73" value="Common fields" style="text;html=1;align=center;verticalAlign=middle;resizable=0;points=[];autosize=1;fontStyle=1" parent="J_sTBLCLrLmJg9gdRxps-19" vertex="1">
          <mxGeometry x="-460" y="830" width="100" height="20" as="geometry" />
        </mxCell>
        <mxCell id="J_sTBLCLrLmJg9gdRxps-74" value="Textbox: Friendly name" style="text;html=1;align=center;verticalAlign=middle;resizable=0;points=[];autosize=1;fillColor=#e9f7fb;" parent="J_sTBLCLrLmJg9gdRxps-19" vertex="1">
          <mxGeometry x="-460" y="860" width="140" height="20" as="geometry" />
        </mxCell>
        <mxCell id="J_sTBLCLrLmJg9gdRxps-75" value="TextBox: subscription name" style="text;html=1;align=center;verticalAlign=middle;resizable=0;points=[];autosize=1;fillColor=#e9f7fb;" parent="J_sTBLCLrLmJg9gdRxps-19" vertex="1">
          <mxGeometry x="-460" y="1010" width="160" height="20" as="geometry" />
        </mxCell>
        <mxCell id="J_sTBLCLrLmJg9gdRxps-76" value="TextBox: Approver" style="text;html=1;align=center;verticalAlign=middle;resizable=0;points=[];autosize=1;fillColor=#e9f7fb;" parent="J_sTBLCLrLmJg9gdRxps-19" vertex="1">
          <mxGeometry x="-460" y="960" width="110" height="20" as="geometry" />
        </mxCell>
        <mxCell id="J_sTBLCLrLmJg9gdRxps-77" value="TextBox: Approver" style="text;html=1;align=center;verticalAlign=middle;resizable=0;points=[];autosize=1;fillColor=#e9f7fb;" parent="J_sTBLCLrLmJg9gdRxps-19" vertex="1">
          <mxGeometry x="-800" y="960" width="110" height="20" as="geometry" />
        </mxCell>
        <mxCell id="J_sTBLCLrLmJg9gdRxps-78" value="" style="endArrow=classic;html=1;entryX=-0.036;entryY=0.55;entryDx=0;entryDy=0;entryPerimeter=0;" parent="J_sTBLCLrLmJg9gdRxps-19" source="J_sTBLCLrLmJg9gdRxps-77" target="J_sTBLCLrLmJg9gdRxps-76" edge="1">
          <mxGeometry width="50" height="50" relative="1" as="geometry">
            <mxPoint x="-680" y="980" as="sourcePoint" />
            <mxPoint x="-630" y="930" as="targetPoint" />
          </mxGeometry>
        </mxCell>
        <mxCell id="J_sTBLCLrLmJg9gdRxps-79" value="TextBox: owners" style="text;html=1;align=center;verticalAlign=middle;resizable=0;points=[];autosize=1;fillColor=#e9f7fb;" parent="J_sTBLCLrLmJg9gdRxps-19" vertex="1">
          <mxGeometry x="-460" y="890" width="100" height="20" as="geometry" />
        </mxCell>
        <mxCell id="J_sTBLCLrLmJg9gdRxps-80" value="TextBox: Requestter" style="text;html=1;align=center;verticalAlign=middle;resizable=0;points=[];autosize=1;fillColor=#e9f7fb;" parent="J_sTBLCLrLmJg9gdRxps-19" vertex="1">
          <mxGeometry x="-800" y="890" width="120" height="20" as="geometry" />
        </mxCell>
        <mxCell id="J_sTBLCLrLmJg9gdRxps-81" value="" style="endArrow=classic;html=1;" parent="J_sTBLCLrLmJg9gdRxps-19" target="J_sTBLCLrLmJg9gdRxps-79" edge="1">
          <mxGeometry width="50" height="50" relative="1" as="geometry">
            <mxPoint x="-680" y="900" as="sourcePoint" />
            <mxPoint x="-630" y="850" as="targetPoint" />
          </mxGeometry>
        </mxCell>
        <mxCell id="J_sTBLCLrLmJg9gdRxps-82" value="" style="endArrow=classic;html=1;exitX=1.026;exitY=0.55;exitDx=0;exitDy=0;exitPerimeter=0;" parent="J_sTBLCLrLmJg9gdRxps-19" source="J_sTBLCLrLmJg9gdRxps-71" target="J_sTBLCLrLmJg9gdRxps-75" edge="1">
          <mxGeometry width="50" height="50" relative="1" as="geometry">
            <mxPoint x="-490" y="1030" as="sourcePoint" />
            <mxPoint x="-440" y="980" as="targetPoint" />
          </mxGeometry>
        </mxCell>
        <mxCell id="J_sTBLCLrLmJg9gdRxps-83" value="{service id}-{env}-{friendlyname}" style="text;html=1;align=center;verticalAlign=middle;resizable=0;points=[];autosize=1;fillColor=#ebe7e2;" parent="J_sTBLCLrLmJg9gdRxps-19" vertex="1">
          <mxGeometry x="-410" y="1030" width="190" height="20" as="geometry" />
        </mxCell>
        <mxCell id="J_sTBLCLrLmJg9gdRxps-84" value="{snap approval flow}" style="text;html=1;align=center;verticalAlign=middle;resizable=0;points=[];autosize=1;fillColor=#ebe7e2;" parent="J_sTBLCLrLmJg9gdRxps-19" vertex="1">
          <mxGeometry x="-410" y="980" width="120" height="20" as="geometry" />
        </mxCell>
        <mxCell id="J_sTBLCLrLmJg9gdRxps-85" value="" style="endArrow=classic;html=1;exitX=0.921;exitY=1;exitDx=0;exitDy=0;exitPerimeter=0;" parent="J_sTBLCLrLmJg9gdRxps-19" source="J_sTBLCLrLmJg9gdRxps-74" edge="1">
          <mxGeometry width="50" height="50" relative="1" as="geometry">
            <mxPoint x="-320" y="870" as="sourcePoint" />
            <mxPoint x="-331" y="1009" as="targetPoint" />
          </mxGeometry>
        </mxCell>
        <mxCell id="J_sTBLCLrLmJg9gdRxps-36" value="Untitled Layer" parent="0" />
        <mxCell id="J_sTBLCLrLmJg9gdRxps-45" value="text" style="" parent="0" />
        <mxCell id="J_sTBLCLrLmJg9gdRxps-46" value="Autocomplete: search costcenter" style="text;html=1;align=center;verticalAlign=middle;resizable=0;points=[];autosize=1;fillColor=#e9f7fb;" parent="J_sTBLCLrLmJg9gdRxps-45" vertex="1">
          <mxGeometry x="-800" y="510" width="190" height="20" as="geometry" />
        </mxCell>
        <mxCell id="J_sTBLCLrLmJg9gdRxps-48" value="&lt;b&gt;Playground fields&lt;/b&gt;" style="text;html=1;align=center;verticalAlign=middle;resizable=0;points=[];autosize=1;" parent="J_sTBLCLrLmJg9gdRxps-45" vertex="1">
          <mxGeometry x="-800" y="330" width="120" height="20" as="geometry" />
        </mxCell>
        <mxCell id="J_sTBLCLrLmJg9gdRxps-49" value="Common fields" style="text;html=1;align=center;verticalAlign=middle;resizable=0;points=[];autosize=1;fontStyle=1" parent="J_sTBLCLrLmJg9gdRxps-45" vertex="1">
          <mxGeometry x="-460" y="330" width="100" height="20" as="geometry" />
        </mxCell>
        <mxCell id="J_sTBLCLrLmJg9gdRxps-50" value="Textbox: Friendly name" style="text;html=1;align=center;verticalAlign=middle;resizable=0;points=[];autosize=1;fillColor=#e9f7fb;" parent="J_sTBLCLrLmJg9gdRxps-45" vertex="1">
          <mxGeometry x="-460" y="360" width="140" height="20" as="geometry" />
        </mxCell>
        <mxCell id="J_sTBLCLrLmJg9gdRxps-51" value="TextBox: subscription name" style="text;html=1;align=center;verticalAlign=middle;resizable=0;points=[];autosize=1;fillColor=#e9f7fb;" parent="J_sTBLCLrLmJg9gdRxps-45" vertex="1">
          <mxGeometry x="-460" y="510" width="160" height="20" as="geometry" />
        </mxCell>
        <mxCell id="J_sTBLCLrLmJg9gdRxps-52" value="TextBox: Approver" style="text;html=1;align=center;verticalAlign=middle;resizable=0;points=[];autosize=1;fillColor=#e9f7fb;" parent="J_sTBLCLrLmJg9gdRxps-45" vertex="1">
          <mxGeometry x="-460" y="460" width="110" height="20" as="geometry" />
        </mxCell>
        <mxCell id="J_sTBLCLrLmJg9gdRxps-53" value="TextBox: Approver" style="text;html=1;align=center;verticalAlign=middle;resizable=0;points=[];autosize=1;fillColor=#e9f7fb;" parent="J_sTBLCLrLmJg9gdRxps-45" vertex="1">
          <mxGeometry x="-800" y="460" width="110" height="20" as="geometry" />
        </mxCell>
        <mxCell id="J_sTBLCLrLmJg9gdRxps-54" value="" style="endArrow=classic;html=1;entryX=-0.036;entryY=0.55;entryDx=0;entryDy=0;entryPerimeter=0;" parent="J_sTBLCLrLmJg9gdRxps-45" source="J_sTBLCLrLmJg9gdRxps-53" target="J_sTBLCLrLmJg9gdRxps-52" edge="1">
          <mxGeometry width="50" height="50" relative="1" as="geometry">
            <mxPoint x="-680" y="480" as="sourcePoint" />
            <mxPoint x="-630" y="430" as="targetPoint" />
          </mxGeometry>
        </mxCell>
        <mxCell id="J_sTBLCLrLmJg9gdRxps-55" value="TextBox: owner" style="text;html=1;align=center;verticalAlign=middle;resizable=0;points=[];autosize=1;fillColor=#e9f7fb;" parent="J_sTBLCLrLmJg9gdRxps-45" vertex="1">
          <mxGeometry x="-460" y="390" width="100" height="20" as="geometry" />
        </mxCell>
        <mxCell id="J_sTBLCLrLmJg9gdRxps-56" value="TextBox: Requestter" style="text;html=1;align=center;verticalAlign=middle;resizable=0;points=[];autosize=1;fillColor=#e9f7fb;" parent="J_sTBLCLrLmJg9gdRxps-45" vertex="1">
          <mxGeometry x="-800" y="390" width="120" height="20" as="geometry" />
        </mxCell>
        <mxCell id="J_sTBLCLrLmJg9gdRxps-57" value="" style="endArrow=classic;html=1;" parent="J_sTBLCLrLmJg9gdRxps-45" target="J_sTBLCLrLmJg9gdRxps-55" edge="1">
          <mxGeometry width="50" height="50" relative="1" as="geometry">
            <mxPoint x="-680" y="400" as="sourcePoint" />
            <mxPoint x="-630" y="350" as="targetPoint" />
          </mxGeometry>
        </mxCell>
        <mxCell id="J_sTBLCLrLmJg9gdRxps-59" value="" style="endArrow=classic;html=1;exitX=1.026;exitY=0.55;exitDx=0;exitDy=0;exitPerimeter=0;" parent="J_sTBLCLrLmJg9gdRxps-45" source="J_sTBLCLrLmJg9gdRxps-46" target="J_sTBLCLrLmJg9gdRxps-51" edge="1">
          <mxGeometry width="50" height="50" relative="1" as="geometry">
            <mxPoint x="-490" y="530" as="sourcePoint" />
            <mxPoint x="-440" y="480" as="targetPoint" />
          </mxGeometry>
        </mxCell>
        <mxCell id="J_sTBLCLrLmJg9gdRxps-61" value="{costcenter}-PLAY-{friendlyname}" style="text;html=1;align=center;verticalAlign=middle;resizable=0;points=[];autosize=1;fillColor=#ebe7e2;" parent="J_sTBLCLrLmJg9gdRxps-45" vertex="1">
          <mxGeometry x="-410" y="530" width="190" height="20" as="geometry" />
        </mxCell>
        <mxCell id="J_sTBLCLrLmJg9gdRxps-62" value="{snap approval flow}" style="text;html=1;align=center;verticalAlign=middle;resizable=0;points=[];autosize=1;fillColor=#ebe7e2;" parent="J_sTBLCLrLmJg9gdRxps-45" vertex="1">
          <mxGeometry x="-410" y="480" width="120" height="20" as="geometry" />
        </mxCell>
        <mxCell id="J_sTBLCLrLmJg9gdRxps-60" value="" style="endArrow=classic;html=1;exitX=0.921;exitY=1;exitDx=0;exitDy=0;exitPerimeter=0;" parent="J_sTBLCLrLmJg9gdRxps-45" source="J_sTBLCLrLmJg9gdRxps-50" edge="1">
          <mxGeometry width="50" height="50" relative="1" as="geometry">
            <mxPoint x="-320" y="370" as="sourcePoint" />
            <mxPoint x="-331" y="509" as="targetPoint" />
          </mxGeometry>
        </mxCell>
        <mxCell id="J_sTBLCLrLmJg9gdRxps-86" value="TextBox: snap request id" style="text;html=1;align=center;verticalAlign=middle;resizable=0;points=[];autosize=1;fillColor=#e9f7fb;" parent="J_sTBLCLrLmJg9gdRxps-45" vertex="1">
          <mxGeometry x="-460" y="565" width="150" height="20" as="geometry" />
        </mxCell>
        <mxCell id="J_sTBLCLrLmJg9gdRxps-88" value="Selection: Target env" style="text;html=1;align=center;verticalAlign=middle;resizable=0;points=[];autosize=1;fillColor=#e9f7fb;" parent="J_sTBLCLrLmJg9gdRxps-45" vertex="1">
          <mxGeometry x="-800" y="1050" width="130" height="20" as="geometry" />
        </mxCell>
        <mxCell id="J_sTBLCLrLmJg9gdRxps-89" value="" style="endArrow=classic;html=1;exitX=0.992;exitY=0.4;exitDx=0;exitDy=0;exitPerimeter=0;entryX=0.238;entryY=1;entryDx=0;entryDy=0;entryPerimeter=0;" parent="J_sTBLCLrLmJg9gdRxps-45" source="J_sTBLCLrLmJg9gdRxps-88" target="J_sTBLCLrLmJg9gdRxps-75" edge="1">
          <mxGeometry width="50" height="50" relative="1" as="geometry">
            <mxPoint x="-660" y="1090" as="sourcePoint" />
            <mxPoint x="-610" y="1040" as="targetPoint" />
            <Array as="points">
              <mxPoint x="-422" y="1058" />
            </Array>
          </mxGeometry>
        </mxCell>
        <mxCell id="J_sTBLCLrLmJg9gdRxps-90" value="{request manager or costcenter owner}" style="text;html=1;align=center;verticalAlign=middle;resizable=0;points=[];autosize=1;fillColor=#ebe7e2;" parent="J_sTBLCLrLmJg9gdRxps-45" vertex="1">
          <mxGeometry x="-775" y="480" width="220" height="20" as="geometry" />
        </mxCell>
        <mxCell id="J_sTBLCLrLmJg9gdRxps-91" value="{service id owner}" style="text;html=1;align=center;verticalAlign=middle;resizable=0;points=[];autosize=1;fillColor=#ebe7e2;" parent="J_sTBLCLrLmJg9gdRxps-45" vertex="1">
          <mxGeometry x="-750" y="980" width="110" height="20" as="geometry" />
        </mxCell>
        <mxCell id="J_sTBLCLrLmJg9gdRxps-92" value="" style="endArrow=classic;html=1;entryX=0.208;entryY=0.95;entryDx=0;entryDy=0;entryPerimeter=0;" parent="J_sTBLCLrLmJg9gdRxps-45" target="J_sTBLCLrLmJg9gdRxps-77" edge="1">
          <mxGeometry width="50" height="50" relative="1" as="geometry">
            <mxPoint x="-777" y="1009" as="sourcePoint" />
            <mxPoint x="-750" y="970" as="targetPoint" />
          </mxGeometry>
        </mxCell>
        <mxCell id="J_sTBLCLrLmJg9gdRxps-93" value="Autocomplete: Additional owner" style="text;html=1;align=center;verticalAlign=middle;resizable=0;points=[];autosize=1;fillColor=#e9f7fb;" parent="J_sTBLCLrLmJg9gdRxps-45" vertex="1">
          <mxGeometry x="-800" y="920" width="180" height="20" as="geometry" />
        </mxCell>
        <mxCell id="J_sTBLCLrLmJg9gdRxps-94" value="" style="endArrow=classic;html=1;entryX=0.49;entryY=1.15;entryDx=0;entryDy=0;entryPerimeter=0;" parent="J_sTBLCLrLmJg9gdRxps-45" target="J_sTBLCLrLmJg9gdRxps-79" edge="1">
          <mxGeometry width="50" height="50" relative="1" as="geometry">
            <mxPoint x="-620" y="930" as="sourcePoint" />
            <mxPoint x="-600" y="880" as="targetPoint" />
            <Array as="points">
              <mxPoint x="-411" y="930" />
            </Array>
          </mxGeometry>
        </mxCell>
        <mxCell id="J_sTBLCLrLmJg9gdRxps-95" value="{production or test}" style="text;html=1;align=center;verticalAlign=middle;resizable=0;points=[];autosize=1;fillColor=#ebe7e2;" parent="J_sTBLCLrLmJg9gdRxps-45" vertex="1">
          <mxGeometry x="-760" y="1070" width="120" height="20" as="geometry" />
        </mxCell>
        <mxCell id="J_sTBLCLrLmJg9gdRxps-96" value="{array of upn}" style="text;html=1;align=center;verticalAlign=middle;resizable=0;points=[];autosize=1;fillColor=#ebe7e2;" parent="J_sTBLCLrLmJg9gdRxps-45" vertex="1">
          <mxGeometry x="-730" y="940" width="90" height="20" as="geometry" />
        </mxCell>
        <mxCell id="J_sTBLCLrLmJg9gdRxps-97" value="Autocomplete: Budget alert" style="text;html=1;align=center;verticalAlign=middle;resizable=0;points=[];autosize=1;fillColor=#e9f7fb;" parent="J_sTBLCLrLmJg9gdRxps-45" vertex="1">
          <mxGeometry x="-800" y="1110" width="160" height="20" as="geometry" />
        </mxCell>
        <mxCell id="J_sTBLCLrLmJg9gdRxps-98" value="Autocomplete:&amp;nbsp;Security alert" style="text;html=1;align=center;verticalAlign=middle;resizable=0;points=[];autosize=1;fillColor=#e9f7fb;" parent="J_sTBLCLrLmJg9gdRxps-45" vertex="1">
          <mxGeometry x="-800" y="1160" width="170" height="20" as="geometry" />
        </mxCell>
        <mxCell id="J_sTBLCLrLmJg9gdRxps-99" value="Autocomplete: Health alert" style="text;html=1;align=center;verticalAlign=middle;resizable=0;points=[];autosize=1;fillColor=#e9f7fb;" parent="J_sTBLCLrLmJg9gdRxps-45" vertex="1">
          <mxGeometry x="-800" y="1210" width="160" height="20" as="geometry" />
        </mxCell>
        <mxCell id="J_sTBLCLrLmJg9gdRxps-100" value="{array of email}" style="text;html=1;align=center;verticalAlign=middle;resizable=0;points=[];autosize=1;fillColor=#ebe7e2;" parent="J_sTBLCLrLmJg9gdRxps-45" vertex="1">
          <mxGeometry x="-740" y="1130" width="100" height="20" as="geometry" />
        </mxCell>
        <mxCell id="J_sTBLCLrLmJg9gdRxps-101" value="{array of email}" style="text;html=1;align=center;verticalAlign=middle;resizable=0;points=[];autosize=1;fillColor=#ebe7e2;" parent="J_sTBLCLrLmJg9gdRxps-45" vertex="1">
          <mxGeometry x="-730" y="1180" width="100" height="20" as="geometry" />
        </mxCell>
        <mxCell id="J_sTBLCLrLmJg9gdRxps-102" value="{array of email}" style="text;html=1;align=center;verticalAlign=middle;resizable=0;points=[];autosize=1;fillColor=#ebe7e2;" parent="J_sTBLCLrLmJg9gdRxps-45" vertex="1">
          <mxGeometry x="-730" y="1230" width="100" height="20" as="geometry" />
        </mxCell>
        <mxCell id="J_sTBLCLrLmJg9gdRxps-103" value="TextBox: snap request id" style="text;html=1;align=center;verticalAlign=middle;resizable=0;points=[];autosize=1;fillColor=#e9f7fb;" parent="J_sTBLCLrLmJg9gdRxps-45" vertex="1">
          <mxGeometry x="-460" y="1090" width="150" height="20" as="geometry" />
        </mxCell>
        <mxCell id="J_sTBLCLrLmJg9gdRxps-105" value="Autocomplete: Jira IO" style="text;html=1;align=center;verticalAlign=middle;resizable=0;points=[];autosize=1;fillColor=#e9f7fb;" parent="J_sTBLCLrLmJg9gdRxps-45" vertex="1">
          <mxGeometry x="-800" y="860" width="130" height="20" as="geometry" />
        </mxCell>
        <mxCell id="J_sTBLCLrLmJg9gdRxps-106" value="Selection: Advisory service" style="text;html=1;align=center;verticalAlign=middle;resizable=0;points=[];autosize=1;fillColor=#e9f7fb;" parent="J_sTBLCLrLmJg9gdRxps-45" vertex="1">
          <mxGeometry x="-800" y="1270" width="160" height="20" as="geometry" />
        </mxCell>
        <mxCell id="J_sTBLCLrLmJg9gdRxps-107" value="{yes/no}" style="text;html=1;align=center;verticalAlign=middle;resizable=0;points=[];autosize=1;fillColor=#ebe7e2;" parent="J_sTBLCLrLmJg9gdRxps-45" vertex="1">
          <mxGeometry x="-710" y="1290" width="60" height="20" as="geometry" />
        </mxCell>
        <mxCell id="J_sTBLCLrLmJg9gdRxps-108" value="Autocomplete: Reader" style="text;html=1;align=center;verticalAlign=middle;resizable=0;points=[];autosize=1;fillColor=#e9f7fb;" parent="J_sTBLCLrLmJg9gdRxps-45" vertex="1">
          <mxGeometry x="-775" y="1330" width="130" height="20" as="geometry" />
        </mxCell>
        <mxCell id="J_sTBLCLrLmJg9gdRxps-109" value="{array of upn}" style="text;html=1;align=center;verticalAlign=middle;resizable=0;points=[];autosize=1;fillColor=#ebe7e2;" parent="J_sTBLCLrLmJg9gdRxps-45" vertex="1">
          <mxGeometry x="-735" y="1350" width="90" height="20" as="geometry" />
        </mxCell>
        <mxCell id="1" parent="0" />
      </root>
    </mxGraphModel>
  </diagram>
</mxfile>
